<svg width="152" height="40" viewBox="0 0 152 40" fill="none" xmlns="http://www.w3.org/2000/svg">
<path d="M20 40C8.95431 40 0 31.0457 0 20C0 8.95431 8.95431 0 20 0C31.0457 0 40 8.95431 40 20C40 31.0457 31.0457 40 20 40Z" fill="#036B3F"/>
<path d="M13.2929 13.2929C16.9427 9.64311 23.0573 9.64311 26.7071 13.2929C30.3569 16.9427 30.3569 23.0573 26.7071 26.7071C23.0573 30.3569 16.9427 30.3569 13.2929 26.7071C9.64311 23.0573 9.64311 16.9427 13.2929 13.2929Z" fill="#FFD700"/>
<path d="M48.7997 38.64V12.9H55.1997V27.54L65.5197 12.9H72.7197L61.4397 26.58L73.1997 38.64H65.8797L58.5597 29.58L55.1997 32.88V38.64H48.7997Z" fill="#111827"/>
<path d="M81.9312 38.64V12.9H101.971V17.7H88.3312V23.4H99.5712V28.14H88.3312V38.64H81.9312Z" fill="#111827"/>
<path d="M117.703 39C112.303 39 107.983 36.9 104.743 32.7L110.143 30C112.243 32.82 114.763 34.26 117.703 34.26C120.943 34.26 122.563 32.82 122.563 30.9C122.563 29.28 121.483 28.2 119.323 27.42L116.203 26.28C112.963 25.08 111.343 23.16 111.343 20.46C111.343 17.16 113.803 15 118.003 15C121.243 15 124.003 16.32 126.163 19.02L121.123 21.9C119.743 20.22 118.003 19.44 116.443 19.44C114.943 19.44 114.163 20.1 114.163 21.12C114.163 22.32 114.943 22.92 116.683 23.58L119.803 24.72C123.523 26.1 125.383 28.26 125.383 31.2C125.383 34.92 122.383 39 117.703 39Z" fill="#111827"/>
<path d="M145.433 38.64H141.473L132.533 12.9H139.313L145.433 30.12L151.553 12.9H158.333L149.393 38.64H145.433Z" fill="#111827"/>
</svg>